HIERARCHY
ROOT Hips
{
  OFFSET -33.9132 29.2015 117.021
  CHANNELS 6 Xposition Yposition Zposition Zrotation Xrotation Yrotation
  JOINT LeftUpLeg
  {
    OFFSET 8.64259 1.95398 -2.38835
    CHANNELS 3 Zrotation Xrotation Yrotation
    JOINT LeftLeg
    {
      OFFSET 43.7702 0 0
      CHANNELS 3 Zrotation Xrotation Yrotation
      JOINT LeftFoot
      {
        OFFSET 40.6238 0 0
        CHANNELS 3 Zrotation Xrotation Yrotation
        JOINT LeftToeBase
        {
          OFFSET 12.7242 0 0
          CHANNELS 3 Zrotation Xrotation Yrotation
          End Site
          {
            OFFSET 0 0 0
          }
        }
      }
    }
  }
  JOINT RightUpLeg
  {
    OFFSET -8.2249 1.95398 -2.59336
    CHANNELS 3 Zrotation Xrotation Yrotation
    JOINT RightLeg
    {
      OFFSET 43.5653 0 0
      CHANNELS 3 Zrotation Xrotation Yrotation
      JOINT RightFoot
      {
        OFFSET 40.6238 0 0
        CHANNELS 3 Zrotation Xrotation Yrotation
        JOINT RightToeBase
        {
          OFFSET 12.7242 0 0
          CHANNELS 3 Zrotation Xrotation Yrotation
          End Site
          {
            OFFSET 0 0 0
          }
        }
      }
    }
  }
  JOINT Spine
  {
    OFFSET 0.165834 0.87714 6.61349
    CHANNELS 3 Zrotation Xrotation Yrotation
    JOINT Spine1
    {
      OFFSET 7.38963 1.71661e-005 0
      CHANNELS 3 Zrotation Xrotation Yrotation
      JOINT Spine2
      {
        OFFSET 11.9445 1.14441e-005 0
        CHANNELS 3 Zrotation Xrotation Yrotation
        JOINT Spine3
        {
          OFFSET 14.7254 4.19617e-005 0
          CHANNELS 3 Zrotation Xrotation Yrotation
          JOINT Spine4
          {
            OFFSET 10.9679 0 0
            CHANNELS 3 Zrotation Xrotation Yrotation
            JOINT RightShoulder
            {
              OFFSET 2.46616 -1.6653 3.69651
              CHANNELS 3 Zrotation Xrotation Yrotation
              JOINT RightArm
              {
                OFFSET 13.0012 0 0
                CHANNELS 3 Zrotation Xrotation Yrotation
                JOINT RightForeArm
                {
                  OFFSET 28.7848 1.62311e-005 0
                  CHANNELS 3 Zrotation Xrotation Yrotation
                  JOINT RightHand
                  {
                    OFFSET 26.5688 1.62095e-005 0
                    CHANNELS 3 Zrotation Xrotation Yrotation
                    End Site
                    {
                      OFFSET 0 0 0
                    }
                  }
                }
              }
            }
            JOINT LeftShoulder
            {
              OFFSET 2.38034 -1.29275 -3.7523
              CHANNELS 3 Zrotation Xrotation Yrotation
              JOINT LeftArm
              {
                OFFSET 16.3182 6.07031e-005 0
                CHANNELS 3 Zrotation Xrotation Yrotation
                JOINT LeftForeArm
                {
                  OFFSET 27.0901 0 0
                  CHANNELS 3 Zrotation Xrotation Yrotation
                  JOINT LeftHand
                  {
                    OFFSET 24.5451 1.51738e-005 0
                    CHANNELS 3 Zrotation Xrotation Yrotation
                    End Site
                    {
                      OFFSET 0 0 0
                    }
                  }
                }
              }
            }
            JOINT Neck
            {
              OFFSET 5.0226 -0.0266342 0
              CHANNELS 3 Zrotation Xrotation Yrotation
              JOINT Head
              {
                OFFSET 6.69364 2.86102e-005 0
                CHANNELS 3 Zrotation Xrotation Yrotation
                End Site
                {
                  OFFSET 0 0 0
                }
              }
            }
          }
        }
      }
    }
  }
}
MOTION
Frames:	7
Frame Time:	0.0416667
-212.282 99.3811 -180.05 -99.4266 42.66 -81.7084 -173.177 5.30254 89.8445 -21.999 5.87014 -1.53424 68.2872 6.17809 1.93637 21.4803 -2.25296 -2.29292 169.617 3.32803 86.1461 -20.8996 -3.92685 2.6248 65.622 -3.77713 -1.895 21.5177 1.03414 7.35233 0.300268 8.65376 -89.8803 9.56587 0.652697 0.187323 -2.10491 0.660302 0.158416 -24.641 0.566204 0.37483 -4.62836 0.566217 0.37483 90.7555 -26.7473 -106.494 50.8133 4.34703 -5.33578 -4.34665 -24.9983 -5.01075 -15.4957 4.35705 -37.774 -86.6927 -49.582 83.6221 -12.7251 -5.52362 -8.46523 -12.3079 33.2421 -0.267967 6.60871 -1.59765 -24.7798 -27.2076 3.28718 0.836234 -11.1705 3.4491 0.177611 
-211.932 99.3254 -180.201 -99.8874 43.5375 -82.0496 -173.541 5.02274 89.1621 -21.9237 5.05651 -1.41628 68.1167 6.12685 2.20744 20.833 -3.89422 0.343461 170.179 3.30118 86.034 -21.2199 -3.99959 1.84285 66.4165 -4.21721 -1.22297 22.0434 1.28139 5.88215 0.425536 8.57007 -89.869 9.73364 0.907604 0.187561 -1.937 0.914977 0.147419 -24.4742 0.809256 0.451671 -4.46156 0.809264 0.451669 91.7189 -26.3322 -104.63 51.5274 3.63323 -6.53193 -5.29417 -41.926 -5.45381 -18.5614 2.71588 -22.3341 -87.6028 -51.3315 82.55 -11.6671 -6.17168 -10.0551 -12.6736 33.1223 -0.00501623 9.24838 -1.82857 -21.8873 -26.4549 2.89122 1.02015 -12.7144 3.01368 0.612906 
-211.223 99.3018 -181.039 -101.363 42.5388 -80.7547 -172.811 4.36722 90.414 -22.89 6.71048 -1.37358 68.4171 6.41977 2.08192 21.9119 -3.31856 0.242604 170.552 1.80354 87.0151 -21.4105 -2.55658 1.79397 67.0588 -4.47642 -0.774783 21.6795 1.40028 5.97778 0.315377 8.63246 -90.0159 9.60901 0.621624 -0.0791494 -2.06179 0.617561 -0.106442 -24.5981 0.616682 0.111342 -4.58545 0.616679 0.111339 91.905 -26.3941 -104.213 50.8539 3.95226 -6.4765 -5.30685 -42.1107 -5.45455 -18.3097 2.92918 -23.9206 -87.683 -52.053 82.5543 -12.0362 -5.98308 -11.1034 -12.6348 33.9884 -0.0161956 8.69352 -1.75567 -22.3109 -26.3303 2.88125 2.42105 -12.2556 3.14203 0.474938 
-210.52 99.2814 -181.66 -101.72 42.8175 -80.7507 -172.591 4.26558 90.8337 -22.8881 6.53696 -1.36191 68.109 6.30861 1.98594 22.7877 -2.55246 -0.468718 170.65 1.90006 87.2385 -22.0805 -2.74479 1.83663 67.7015 -4.72837 -0.780366 20.6184 1.76943 6.17517 0.263802 8.58671 -90.0472 9.7008 0.504583 -0.133087 -1.97004 0.498268 -0.155184 -24.506 0.521267 0.0247217 -4.49334 0.52126 0.0247074 91.2347 -26.3677 -105.64 50.1528 4.47027 -5.84677 -5.06116 -38.325 -5.31482 -19.2193 3.1556 -24.3536 -88.5972 -53.1377 81.4127 -12.5102 -6.75868 -9.96219 -11.6477 36.9017 -0.112918 8.48503 -1.79545 -23.0218 -25.746 3.36278 3.51168 -13.2627 3.75426 -0.0123707 
-209.888 99.4308 -182.255 -102.013 43.6731 -80.9573 -172.597 3.56687 90.8257 -21.8264 5.72474 -1.36256 67.8237 5.96208 1.34328 22.4913 -3.27917 0.722198 170.883 1.57653 87.3748 -21.4205 -3.43853 1.60769 67.6987 -4.84151 -1.03283 20.1165 1.97274 6.18216 0.279195 8.53086 -90.0357 9.81249 0.540377 -0.113903 -1.85835 0.534879 -0.137586 -24.3944 0.549646 0.0537787 -4.38176 0.549626 0.0537709 92.0232 -25.4406 -104.316 52.4919 3.23284 -6.43159 -5.04798 -38.1128 -5.30885 -19.2817 2.88334 -22.6693 -88.977 -53.499 80.9274 -13.0286 -6.91469 -9.1571 -11.022 37.5032 -0.700675 7.88554 -1.71646 -23.5075 -25.5364 3.32511 2.67579 -12.4483 3.44489 2.33462 
-209.307 99.5527 -182.669 -101.921 44.2616 -81.0965 -173.017 3.15541 90.8975 -20.5839 4.8177 -0.95004 67.1859 5.34706 1.01257 23.4699 -2.78839 0.685859 171.204 1.47988 87.7986 -20.8452 -3.44344 1.51327 67.7025 -4.97696 -0.966686 19.9733 2.02867 6.18994 0.229127 8.4556 -89.9972 9.96279 0.45797 -0.031954 -1.70807 0.456137 -0.0520834 -24.2439 0.446397 0.107167 -4.2312 0.446397 0.107155 90.9879 -27.8053 -105.593 49.795 4.68983 -5.64252 -5.07054 -38.4795 -5.32081 -18.1362 2.76275 -23.0574 -88.8199 -52.4645 80.9636 -14.4037 -7.24247 -8.52155 -11.3913 37.609 0.0242309 8.32673 -1.77137 -23.256 -23.7994 4.13096 2.61982 -14.3225 4.26134 1.50465 
-208.845 99.639 -183.185 -101.621 44.503 -81.6247 -173.018 3.01475 90.9814 -19.8007 4.74478 -1.00032 66.6996 4.83962 0.788456 23.8977 -2.74634 1.02626 171.28 1.63484 87.8957 -20.7216 -3.4714 1.50176 67.7547 -5.12555 -0.902062 20.0546 2.05809 6.00091 0.149046 8.38262 -90.02 10.1088 0.288061 -0.0635602 -1.56215 0.284976 -0.0761806 -24.0976 0.293844 0.0259567 -4.08491 0.293815 0.0259426 92.5787 -27.3053 -102.488 51.0524 3.87534 -6.4473 -5.17907 -40.1905 -5.38017 -18.1524 2.48409 -21.2602 -89.0457 -53.0317 80.7412 -14.6608 -7.90917 -8.40973 -11.2399 38.2844 -0.0274619 7.35927 -1.39553 -21.7682 -22.7409 4.30187 2.82063 -14.2095 4.34105 2.30665 
